<?xml version="1.0" standalone="no"?>
<!DOCTYPE svg PUBLIC "-//W3C//DTD SVG 20010904//EN"
 "http://www.w3.org/TR/2001/REC-SVG-20010904/DTD/svg10.dtd">
<svg version="1.0" xmlns="http://www.w3.org/2000/svg"
 width="805.000000pt" height="805.000000pt" viewBox="0 0 805.000000 805.000000"
 preserveAspectRatio="xMidYMid meet">
<metadata>
Created by potrace 1.14, written by Peter Selinger 2001-2017
</metadata>
<g transform="translate(0.000000,805.000000) scale(0.100000,-0.100000)"
fill="#000000" stroke="none">
<path d="M1200 8031 c-4 -8 -4 -27 0 -43 5 -15 6 -28 2 -28 -8 0 -6 -125 2
-146 3 -8 2 -14 -2 -14 -8 0 -6 -124 2 -146 3 -8 2 -14 -2 -14 -8 0 -6 -124 2
-146 3 -8 2 -14 -2 -14 -8 0 -6 -124 2 -146 3 -8 2 -14 -2 -14 -8 0 -6 -124 2
-146 3 -8 2 -14 -2 -14 -8 0 -6 -124 2 -146 3 -8 2 -14 -2 -14 -8 0 -6 -124 2
-146 3 -8 2 -14 -2 -14 -8 0 -6 -104 2 -126 3 -7 1 -16 -5 -19 -5 -4 -7 -11
-3 -16 5 -9 8 -80 4 -104 -1 -5 -1 -30 -1 -55 1 -25 1 -51 1 -57 0 -7 0 -19 0
-25 0 -7 0 -31 1 -53 0 -22 0 -44 -1 -50 -4 -21 -1 -96 5 -104 3 -6 1 -12 -5
-16 -6 -4 -8 -11 -4 -16 5 -9 8 -80 4 -104 -1 -5 -1 -30 -1 -55 1 -25 1 -51 1
-57 0 -7 0 -19 0 -25 0 -7 0 -31 1 -53 0 -22 0 -44 -1 -50 -5 -25 -4 -52 2
-77 3 -15 3 -30 -2 -33 -4 -3 -5 -17 -1 -33 l7 -27 212 -1 212 -1 0 964 c0
910 1 963 18 964 22 1 5855 1 5862 0 7 -1 4 -3622 -4 -3771 -3 -69 -11 -161
-16 -205 -23 -167 -23 -169 -34 -215 -3 -14 -8 -38 -11 -55 -11 -58 -16 -80
-27 -120 -6 -22 -12 -47 -13 -55 -1 -8 -15 -55 -30 -105 -134 -436 -367 -854
-659 -1184 -63 -70 -225 -231 -285 -281 -29 -25 -61 -52 -70 -61 -35 -35 -332
-249 -344 -249 -3 0 -55 -29 -117 -65 -62 -36 -114 -65 -116 -65 -3 0 -22 -11
-44 -25 -22 -14 -40 -22 -40 -18 0 5 -4 3 -8 -3 -7 -9 -49 -34 -182 -107 -30
-17 -68 -38 -85 -48 -16 -10 -47 -27 -68 -38 -21 -12 -95 -53 -165 -92 -70
-40 -147 -83 -172 -97 -25 -13 -58 -32 -75 -42 -40 -24 -122 -69 -165 -92 -19
-10 -48 -27 -65 -37 -16 -9 -56 -32 -88 -49 l-58 -32 -117 66 c-64 37 -133 76
-152 88 -19 11 -37 21 -40 21 -5 1 -79 42 -127 71 -28 17 -67 39 -168 94 -44
24 -102 56 -128 72 -26 15 -50 28 -52 28 -3 0 -34 18 -70 40 -36 22 -67 40
-70 40 -2 0 -30 15 -62 34 -32 18 -78 45 -103 58 -247 137 -374 210 -420 241
-77 52 -224 161 -248 185 -13 12 -26 22 -30 22 -7 0 -57 46 -182 165 -225 214
-457 522 -600 798 -17 31 -32 47 -45 48 -76 2 -447 0 -450 -3 -2 -2 23 -57 55
-123 33 -66 59 -125 60 -132 0 -6 4 -13 8 -15 4 -1 25 -34 46 -73 86 -157 269
-417 408 -578 94 -109 315 -326 414 -407 20 -16 129 -103 154 -123 44 -35 121
-87 129 -87 5 0 11 -7 15 -15 3 -8 10 -15 15 -15 6 0 29 -13 53 -29 37 -25
304 -177 478 -273 30 -17 84 -48 120 -68 36 -21 92 -53 125 -71 33 -18 78 -43
100 -56 22 -12 47 -26 55 -30 8 -4 57 -31 109 -60 51 -29 97 -53 101 -53 5 0
10 -3 12 -7 2 -5 21 -18 43 -29 22 -12 114 -63 205 -114 91 -51 183 -102 205
-114 22 -12 42 -23 45 -26 3 -3 28 -18 57 -33 l52 -28 63 34 c35 19 86 47 113
62 28 16 97 54 155 87 58 32 112 62 120 68 8 5 32 18 53 30 21 11 95 52 165
92 70 39 145 81 167 93 22 12 112 63 200 112 88 50 185 104 215 120 478 265
627 362 852 554 195 167 321 300 535 563 8 11 46 65 84 120 38 56 72 106 77
111 52 65 215 374 284 540 27 66 53 129 58 140 5 11 16 43 25 70 10 28 20 57
23 65 3 8 6 17 7 20 0 3 10 37 22 75 20 65 49 173 59 220 3 11 9 40 14 65 17
76 31 150 36 190 1 14 5 39 8 55 5 29 10 64 21 170 15 134 17 395 18 2315 l0
2064 -3367 1 c-2895 0 -3369 -2 -3376 -14z"/>
<path d="M5735 7231 c-35 -15 -67 -58 -74 -98 -3 -21 -6 -755 -6 -1631 l1
-1593 -168 3 c-101 2 -169 7 -171 13 -1 6 18 11 43 12 25 1 49 2 54 2 5 1 4 7
-1 14 -6 6 -39 66 -73 132 -35 66 -75 143 -90 170 -15 28 -54 102 -86 165 -32
63 -61 117 -64 120 -4 3 -18 30 -33 60 -14 30 -55 109 -90 175 -35 66 -96 183
-136 260 -41 77 -86 163 -101 190 -15 28 -58 109 -95 180 -37 72 -85 162 -105
200 -94 177 -200 383 -200 388 0 3 17 3 38 0 l37 -5 -2 149 c-1 81 -2 156 -2
165 -1 12 -8 15 -27 12 -55 -10 -103 -47 -140 -110 -10 -17 -15 -11 -45 48
-24 49 -40 70 -59 75 -28 9 -1572 9 -1586 1 -5 -4 -8 -377 -8 -920 1 -502 0
-920 -2 -928 -4 -14 -137 -16 -1213 -16 -1008 0 -1212 -2 -1225 -13 -13 -11
-16 -26 -12 -65 3 -28 5 -51 6 -51 1 0 3 -9 4 -20 10 -76 17 -114 25 -142 5
-18 8 -33 6 -33 -4 0 30 -88 61 -157 10 -24 22 -43 26 -43 5 0 8 -6 8 -12 1
-29 173 -188 203 -188 3 0 22 -8 43 -17 22 -9 41 -17 44 -18 43 -9 65 -34 74
-80 6 -30 46 -129 57 -139 5 -6 9 -18 9 -27 0 -10 3 -19 8 -21 4 -1 20 -22 35
-45 44 -64 142 -160 205 -200 31 -20 88 -46 125 -58 67 -22 82 -22 728 -24
554 -2 660 0 664 12 5 12 -74 177 -95 201 -5 4 -244 10 -532 12 -581 3 -606 5
-698 33 -125 39 -217 117 -282 239 -35 68 -36 90 -2 98 14 4 311 7 660 8 349
0 634 4 634 9 0 13 -92 187 -103 194 -6 3 -306 6 -668 5 -709 -1 -679 -2 -790
54 -58 29 -149 114 -177 165 -31 57 -43 107 -28 122 10 9 201 12 876 12 l863
0 55 -105 c44 -85 285 -566 444 -887 17 -35 34 -63 37 -63 4 0 17 22 30 50 13
27 45 71 71 97 80 80 90 87 184 122 107 40 277 17 381 -53 94 -62 174 -187
189 -293 6 -48 12 -52 74 -52 31 0 62 0 67 -1 6 -1 15 -1 20 0 22 4 105 1 114
-4 5 -4 12 -2 15 3 3 4 23 5 43 1 21 -3 50 -3 64 1 15 3 33 3 40 -2 7 -4 17
-5 22 -2 12 7 154 6 166 -2 6 -3 11 -2 11 2 0 5 17 7 38 5 l37 -4 -1 109 c0
59 3 122 7 138 5 17 10 41 13 55 10 60 68 189 102 230 102 123 200 197 328
249 182 73 378 59 575 -41 102 -51 105 -53 96 -39 -12 20 26 26 182 27 141 1
163 -1 167 -15 2 -9 4 -226 4 -484 -1 -257 2 -471 6 -475 4 -4 61 -7 126 -7
99 -1 119 2 122 15 3 13 2 4183 -1 4278 -2 51 -55 103 -111 108 -25 2 -54 0
-65 -5z m-1636 -996 c5 -5 37 -63 70 -127 68 -132 152 -293 216 -413 23 -44
72 -136 108 -205 35 -69 86 -165 112 -215 26 -49 75 -144 109 -210 33 -66 63
-122 66 -125 3 -3 25 -45 50 -95 25 -49 47 -92 50 -95 3 -3 27 -48 54 -100 26
-52 58 -115 72 -139 13 -24 23 -46 21 -48 -2 -2 -28 41 -57 94 -30 54 -65 118
-78 143 -63 113 -142 261 -142 265 0 3 -14 27 -30 54 -22 34 -39 51 -58 55
-37 8 -93 18 -117 21 -11 2 -20 4 -20 5 0 1 -12 3 -27 5 -22 3 -33 -4 -57 -37
-17 -23 -32 -45 -34 -51 -2 -8 -192 101 -234 135 -12 10 -6 28 20 62 42 57 94
158 90 176 -6 21 -9 22 -35 12 -16 -7 -118 -154 -118 -171 0 -4 -14 -18 -30
-31 -17 -13 -30 -32 -30 -44 0 -12 -29 -69 -65 -127 -36 -59 -65 -111 -65
-117 0 -16 26 -33 42 -27 7 3 29 31 47 63 61 103 96 152 106 152 9 0 86 -48
112 -70 7 -5 15 -10 17 -10 3 0 28 -14 56 -31 47 -29 50 -33 35 -48 -8 -10
-15 -21 -15 -25 0 -4 -9 -21 -21 -37 -21 -29 -21 -31 -3 -52 51 -58 81 -93
103 -116 12 -14 39 -46 60 -70 20 -24 57 -67 83 -95 26 -28 50 -59 53 -68 4
-10 -18 -63 -53 -130 -33 -62 -72 -135 -86 -163 -45 -85 -19 -80 -409 -79
-191 0 -349 3 -352 6 -3 3 -7 59 -8 125 -2 120 -11 151 -52 188 -44 40 -44 40
-520 41 -254 0 -465 3 -471 6 -6 4 -9 326 -8 890 1 485 2 883 3 884 0 0 323 0
716 0 462 -1 717 -5 724 -11z m-1654 -1927 c7 -6 -15 -68 -24 -68 -4 0 -15 15
-24 34 -11 25 -13 36 -4 39 15 5 45 2 52 -5z m217 3 c5 -1 -18 -74 -42 -126
-21 -48 -64 -171 -62 -177 1 -5 -2 -8 -8 -8 -5 0 -22 27 -39 60 l-29 60 36 95
c22 55 43 96 52 97 13 3 70 2 92 -1z m214 -4 c3 -3 -6 -32 -20 -66 -13 -33
-22 -61 -19 -61 3 0 1 -6 -4 -12 -5 -7 -18 -35 -27 -63 -10 -27 -24 -63 -31
-80 -7 -16 -32 -83 -56 -148 -23 -64 -46 -114 -50 -110 -4 5 -19 31 -34 60
-30 58 -30 52 20 183 18 47 48 126 66 175 47 128 50 131 105 129 25 -1 48 -4
50 -7z m220 0 c1 -1 -11 -33 -26 -72 -79 -201 -153 -401 -153 -412 0 -7 -4
-13 -8 -13 -4 0 -10 -15 -13 -32 -4 -18 -17 -53 -30 -78 -22 -44 -23 -45 -75
-46 -48 -1 -51 0 -45 20 11 38 64 181 74 198 6 10 10 23 10 29 0 6 6 25 14 42
7 18 24 59 36 92 12 33 26 69 31 80 5 11 20 54 35 95 35 99 43 108 101 104 25
-2 47 -5 49 -7z m212 -1 c1 -2 -3 -16 -9 -32 -7 -16 -13 -33 -14 -39 -2 -5
-19 -50 -38 -100 -19 -49 -38 -101 -42 -115 -4 -14 -11 -29 -15 -35 -4 -5 -17
-39 -30 -75 -13 -36 -28 -76 -33 -90 -6 -14 -11 -27 -11 -30 -5 -23 -42 -109
-54 -122 -16 -19 -95 -21 -100 -3 -2 10 27 97 54 160 7 17 32 82 55 145 105
285 121 326 134 336 12 9 93 9 103 0z m157 -5 c44 -5 57 -30 35 -69 -9 -16
-139 -354 -144 -377 -2 -5 -9 -23 -15 -40 -7 -16 -22 -55 -33 -85 -11 -30 -25
-59 -30 -65 -12 -14 -108 -14 -108 -1 0 6 7 24 15 40 8 15 15 36 15 45 0 9 4
21 8 27 5 5 21 45 37 89 15 44 33 94 40 110 7 17 18 46 25 65 7 19 19 49 26
65 7 17 24 63 38 103 37 103 43 114 64 103 9 -5 22 -10 27 -10z m68 -349 c-1
-42 -2 -116 -2 -163 -1 -109 -13 -128 -88 -135 -29 -2 -54 -1 -56 4 -3 4 19
69 48 144 29 75 50 139 47 142 -3 3 0 6 6 6 7 0 12 7 12 15 0 18 21 65 29 65
3 0 5 -35 4 -78z m600 -84 c9 -9 12 -20 7 -28 -5 -8 -4 -22 1 -31 6 -12 5 -20
-1 -24 -6 -4 -8 -15 -5 -25 3 -10 1 -21 -5 -25 -18 -11 -290 -8 -304 4 -12 10
-14 116 -2 128 12 12 74 18 180 17 88 0 117 -4 129 -16z"/>
<path d="M3023 5465 c-16 -11 -25 -31 -30 -68 -4 -29 -6 -56 -5 -60 1 -5 -12
-8 -30 -7 -63 4 -60 7 -53 -82 4 -46 9 -92 11 -103 2 -10 6 -49 10 -85 3 -36
7 -78 10 -94 3 -16 7 -52 9 -80 3 -28 7 -70 10 -93 13 -107 15 -131 20 -183 3
-30 7 -64 9 -75 3 -11 5 -25 5 -30 1 -7 110 -10 324 -9 377 2 347 0 347 19 0
10 10 15 29 15 42 0 83 51 79 99 -5 56 -35 66 -198 65 -132 0 -259 -8 -330
-20 -82 -15 -84 -14 -83 36 4 125 3 558 -1 580 -30 169 -69 220 -133 175z"/>
<path d="M5978 6888 c-3 -11 -3 -4014 1 -4043 1 -7 186 -10 544 -9 298 1 546
2 551 3 19 2 -18 31 -48 36 -17 3 -44 7 -61 10 -92 16 -154 18 -517 19 l-396
1 -4 25 c-2 14 -3 910 -3 1993 1 1082 -2 1967 -5 1968 -3 0 -17 3 -31 5 -16 3
-28 -1 -31 -8z"/>
<path d="M4808 3855 c-2 -2 -22 -7 -44 -11 -56 -9 -150 -49 -212 -90 -140 -92
-251 -256 -278 -409 -16 -94 -5 -249 25 -328 78 -204 221 -341 424 -405 80
-25 284 -22 362 5 65 23 117 45 125 53 3 3 23 17 45 31 87 57 165 147 213 246
26 55 35 78 48 136 2 9 6 27 9 40 3 12 5 58 4 102 -1 115 -2 125 -12 125 -4 0
-6 4 -2 9 8 14 -38 133 -75 194 -43 72 -132 164 -196 204 -40 26 -140 71 -169
77 -16 4 -41 9 -55 12 -31 8 -206 15 -212 9z m202 -267 c155 -51 261 -192 266
-357 5 -178 -116 -332 -296 -379 -19 -5 -59 -8 -89 -6 -60 2 -171 32 -171 46
0 4 -7 8 -15 8 -27 0 -121 103 -151 165 -25 53 -29 71 -29 155 1 82 4 103 27
152 15 32 39 73 54 93 30 39 141 118 155 109 5 -3 9 -1 9 4 0 25 172 33 240
10z"/>
<path d="M4855 3344 c-22 -7 -41 -14 -42 -14 -1 0 -11 -16 -23 -35 -51 -82 -2
-192 87 -196 58 -3 74 2 110 34 102 94 -1 258 -132 211z"/>
<path d="M2926 3435 c-99 -40 -160 -97 -206 -190 -26 -52 -45 -126 -42 -160 8
-77 11 -100 12 -102 2 -2 3 -7 4 -12 0 -5 4 -13 9 -17 4 -4 7 -16 7 -26 0 -10
4 -18 9 -18 5 0 12 -10 15 -22 8 -30 60 -88 115 -127 38 -27 82 -45 141 -58
43 -9 140 -3 180 12 25 9 51 17 58 17 6 1 12 5 12 9 0 4 9 10 19 14 29 9 104
86 133 136 42 73 59 169 44 254 -8 47 -57 151 -84 181 -36 38 -106 90 -137
101 -16 6 -39 15 -50 19 -11 4 -57 8 -101 10 -66 1 -93 -3 -138 -21z m227
-149 c81 -33 143 -140 134 -229 -8 -77 -56 -146 -125 -180 -232 -115 -443 185
-257 366 63 61 164 79 248 43z"/>
<path d="M3004 3127 c-30 -36 -27 -82 8 -109 75 -57 165 38 104 109 -34 39
-79 39 -112 0z"/>
</g>
</svg>
