<svg width="46" height="46" viewBox="0 0 46 46" fill="none" xmlns="http://www.w3.org/2000/svg">
<path d="M16.0739 35.1077C16.052 35.3264 16.0709 35.5549 16.1506 35.7813C16.3453 36.3272 16.8023 36.7719 17.3435 36.9395C17.8465 37.0985 18.3468 36.9927 18.4986 36.8276L19.548 35.7016C19.8516 35.377 19.9282 34.8583 19.7498 34.3548C19.3108 33.5135 18.7225 33.2099 17.9691 33.074L16.0739 35.1077Z" fill="white"/>
<path d="M14.6704 29.4779L12.8365 31.4446C12.4639 31.85 12.3571 32.473 12.5651 33.07C12.7859 33.7007 13.3129 34.2138 13.9436 34.4055C14.5406 34.5844 15.1396 34.4454 15.5148 34.0462L17.2127 32.2251C17.5878 31.8208 17.6921 31.2008 17.4841 30.6039C17.2633 29.9701 16.7332 29.459 16.1056 29.2683C15.6047 29.1084 15.0169 29.1022 14.6704 29.4779Z" fill="white"/>
<path d="M11.0349 26.2415L9.3416 28.0595C8.96849 28.4617 8.86422 29.0868 9.0702 29.6859C9.291 30.3145 9.81795 30.8277 10.4487 31.0193C11.0446 31.2008 11.6498 31.0592 11.8384 30.8594L13.7182 28.842C14.0934 28.4367 14.1977 27.8137 13.9896 27.2177C13.7678 26.5849 13.2409 26.0738 12.6102 25.8842C12.03 25.6951 11.3881 25.8633 11.0349 26.2415Z" fill="white"/>
<path d="M7.7224 22.6576L5.8456 24.676C5.47044 25.0803 5.36618 25.7003 5.5742 26.2942C5.79295 26.93 6.32297 27.4411 6.95369 27.6328C7.54964 27.8107 8.15378 27.6727 8.34033 27.4703L10.2222 25.4529V25.4509C10.5974 25.0517 10.7017 24.4307 10.4936 23.8347C10.2759 23.1989 9.74589 22.6878 9.11518 22.4982C8.6332 22.3321 8.05002 22.3034 7.7224 22.6576Z" fill="white"/>
<path d="M32.0881 10.6204C30.8742 11.2991 29.187 11.4208 27.5438 11.5388C26.3008 11.6237 25.0184 11.7136 24.0968 12.054L18.973 13.9446C18.9382 13.9584 18.9029 13.9666 18.8661 13.9717C18.6188 14.0106 18.3898 14.0438 18.1843 14.0724C16.9367 14.2482 16.7926 14.3019 16.6489 14.6714C16.5181 15.0129 16.6617 15.5051 17.0164 15.9231C17.3057 16.2666 18.4378 17.3389 20.767 16.7874L23.6849 16.4021C25.3189 16.1915 26.6289 17.2566 27.6751 18.1163L35.5222 24.3938L35.5284 24.3907C37.0796 23.7416 38.6957 22.8973 40.0696 21.2423L32.0881 10.6204Z" fill="white"/>
<path d="M21.2909 10.2391C20.8257 10.282 20.2927 10.3408 19.7335 10.3991C16.6408 10.7292 14.926 10.8591 14.0535 10.6975L6.02448 21.1482C6.3199 21.4278 6.56472 21.7181 6.76201 22.0325C7.4331 21.3455 8.44714 21.1002 9.43461 21.3987C10.4037 21.691 11.2128 22.4766 11.5511 23.4513C11.6947 23.8638 11.7397 24.287 11.7029 24.6923C12.099 24.6366 12.5176 24.6596 12.9296 24.7853C13.8961 25.0756 14.7083 25.8632 15.0441 26.8379C15.1897 27.2483 15.2357 27.6705 15.201 28.0758C15.5971 28.0201 16.0157 28.0436 16.4276 28.1719C17.3921 28.4643 18.2007 29.2499 18.539 30.2194C18.7517 30.8343 18.7598 31.4671 18.5871 32.0344C18.6857 32.0533 18.7869 32.0773 18.8876 32.109C19.7529 32.3773 20.4879 33.0883 20.8043 33.9649C21.1058 34.8133 20.975 35.7047 20.4797 36.3446L21.9042 37.4839C22.2528 37.7604 22.7608 37.7905 23.2351 37.5605C23.7493 37.3111 24.1377 36.8046 24.2522 36.2378C24.3003 36.0011 24.2844 35.7716 24.2303 35.559L22.4235 34.1136C22.1807 33.9189 22.1378 33.5595 22.3274 33.3101C22.5191 33.0627 22.8707 33.0167 23.115 33.2115L25.2872 34.9523C25.5029 35.1251 26.1209 35.1711 26.6877 34.9043C27.2836 34.6196 27.7339 34.0328 27.8586 33.3781C27.9782 32.7591 27.7866 32.1591 27.3603 31.8156L25.3956 30.2435C25.1508 30.0487 25.1078 29.6884 25.2995 29.442C25.4891 29.1916 25.8428 29.1456 26.0851 29.3434L28.9412 31.6276C29.3705 31.969 29.9874 32.016 30.5573 31.7502C31.1481 31.4676 31.5984 30.8818 31.7262 30.2199C31.8458 29.601 31.6541 29.003 31.2233 28.6565L28.3662 26.3754C28.1213 26.1786 28.0784 25.8193 28.2701 25.5678C28.4617 25.3215 28.8134 25.2785 29.0587 25.4728C29.0587 25.4728 33.397 28.9417 33.4001 28.9417C33.6158 29.1113 34.2307 29.1594 34.7949 28.8895C35.3919 28.611 35.8391 28.0252 35.9689 27.3654C36.0865 26.7454 35.8948 26.1433 35.466 25.8029L26.9749 19.0077C26.0007 18.2088 24.9944 17.3813 23.8255 17.5383L20.9663 17.9114C19.0389 18.3744 17.2209 17.9165 16.1695 16.6735C15.5357 15.9247 15.3201 14.9985 15.6047 14.2539C16.0039 13.2209 16.7685 13.1141 18.0305 12.9362C18.2191 12.9122 18.422 12.8825 18.6453 12.8473L23.7166 10.9766C24.0463 10.8539 24.4112 10.7691 24.7889 10.694C23.4851 10.1895 22.54 10.1593 21.2909 10.2391Z" fill="white"/>
<path d="M10.2702 8.25845C9.34667 8.18843 8.50333 8.88456 7.28944 10.4654L4.18495 14.5093C3.06204 15.9681 2.6414 16.8753 2.73442 17.644C2.80904 18.2757 3.2486 18.8957 3.68458 19.2453L5.15709 20.4214L13.1534 10.0136L12.1184 9.18509C11.407 8.61776 10.8243 8.30138 10.2702 8.25845Z" fill="white"/>
<path d="M35.9117 8.24781C35.3576 8.28257 34.7699 8.5923 34.0528 9.15146L33.0065 9.9631L40.892 20.4557L41.9111 19.663C42.7928 18.9791 43.2426 18.3673 43.3248 17.7361C43.4266 16.9694 43.0192 16.055 41.9142 14.5774L38.8603 10.4947C37.6704 8.89743 36.8378 8.18852 35.9117 8.24781Z" fill="white"/>
</svg>
