<svg width="24" height="24" viewBox="0 0 24 24" xmlns="http://www.w3.org/2000/svg">
<g>
    <path d="M18.0595 5.71511L8.18903 11.7943C7.63047 12.1391 7.36614 12.8202 7.54609 13.4501L8.61334 17.2001C8.70452 17.5198 8.98905 17.7324 9.31642 17.7324C9.33466 17.7324 9.35308 17.7317 9.37155 17.7303C9.72152 17.7049 9.99845 17.4443 10.045 17.0968L10.3225 15.0406C10.3599 14.764 10.4932 14.5066 10.6975 14.3164L18.8428 6.74495C19.0889 6.51672 19.1215 6.14298 18.9186 5.87566C18.7155 5.60809 18.3463 5.53891 18.0595 5.71511ZM10.0463 13.6163C9.68027 13.957 9.44181 14.4174 9.37487 14.9126L9.2403 15.91L8.46559 13.1879C8.40264 12.9674 8.49536 12.729 8.69083 12.6083L15.9217 8.15486L10.0463 13.6163Z"/>
    <path d="M23.6095 1.75238C23.3012 1.49101 22.8756 1.41905 22.4987 1.56465L0.706888 9.9713C0.27531 10.1378 -0.0021901 10.5441 1.30226e-05 11.0065C0.00226302 11.4694 0.283841 11.8735 0.717951 12.0361L5.80811 13.9359L7.79368 20.3215C7.90272 20.6725 8.17792 20.9453 8.52976 21.0511C8.88142 21.1569 9.2612 21.0813 9.54508 20.8491L12.5048 18.4363C12.6469 18.3204 12.8499 18.3147 12.9983 18.4225L18.3365 22.2982C18.5286 22.4378 18.7552 22.5096 18.9845 22.5096C19.1188 22.5096 19.254 22.485 19.3837 22.4348C19.7346 22.2991 19.9898 21.9983 20.0662 21.6303L23.9769 2.81893C24.0591 2.42283 23.9183 2.01418 23.6095 1.75238ZM23.0408 2.62463L19.1301 21.4359C19.1159 21.5039 19.067 21.5322 19.039 21.543C19.0109 21.5539 18.9554 21.5659 18.8986 21.5246L13.5601 17.6487C13.3215 17.4755 13.0409 17.3895 12.7608 17.3895C12.4553 17.3895 12.1502 17.4919 11.9008 17.695L8.94044 20.1084C8.88775 20.1515 8.83304 20.1438 8.8052 20.1354C8.77717 20.127 8.72715 20.1031 8.70681 20.0377L6.65158 13.428C6.60765 13.2868 6.50078 13.1738 6.36222 13.1221L1.05292 11.1405C0.973419 11.1107 0.956497 11.0487 0.956263 11.0019C0.956029 10.9555 0.972341 10.8938 1.05109 10.8634L22.843 2.45677C22.843 2.45673 22.8432 2.45668 22.8433 2.45663C22.9141 2.4293 22.9665 2.46071 22.9914 2.4818C23.0164 2.50313 23.0563 2.55001 23.0408 2.62463Z"/>
    <path d="M20.0381 11.8191C19.78 11.763 19.5255 11.9269 19.4695 12.1849L19.3968 12.5196C19.3408 12.7776 19.5046 13.0322 19.7627 13.0882C19.7968 13.0956 19.8309 13.0992 19.8646 13.0992C20.0846 13.0992 20.2827 12.9463 20.3313 12.7225L20.404 12.3878C20.46 12.1297 20.2961 11.8752 20.0381 11.8191Z"/>
    <path d="M19.56 14.0212C19.3017 13.9652 19.0473 14.129 18.9914 14.387L17.8917 19.4519C17.8357 19.71 17.9995 19.9646 18.2575 20.0206C18.2917 20.028 18.3258 20.0315 18.3594 20.0315C18.5795 20.0315 18.7775 19.8786 18.8262 19.6548L19.9258 14.5899C19.9818 14.3318 19.818 14.0773 19.56 14.0212Z"/>
</g>
</svg>
