<svg width="24" height="24" viewBox="0 0 24 24" xmlns="http://www.w3.org/2000/svg">
<g>
    <path d="M22.9337 15.7352C22.4116 15.1095 21.8218 14.5509 21.2514 14.0107C21.051 13.8208 20.8436 13.6244 20.6439 13.4295C20.6439 13.4294 20.6438 13.4294 20.6438 13.4293C20.3752 13.1673 20.2437 12.9814 20.23 12.844C20.2165 12.709 20.3087 12.5087 20.5209 12.2127C20.8382 11.7674 21.1764 11.3213 21.5036 10.8899C21.7944 10.5065 22.0951 10.11 22.3833 9.71122L22.4479 9.62169C23.0102 8.84347 23.5916 8.03876 23.9031 7.05813C23.9921 6.77698 24.0844 6.36091 23.8616 5.99566C23.6387 5.63031 23.2254 5.52203 22.9341 5.47244C22.7918 5.44806 22.6568 5.44605 22.5312 5.44605L18.884 5.44281C18.2535 5.43231 17.816 5.73119 17.5776 6.33138C17.3868 6.81073 17.1615 7.36624 16.9005 7.89321C16.401 8.91055 15.7664 10.0823 14.8465 11.0586L14.8056 11.1021C14.743 11.1689 14.6406 11.2782 14.5881 11.3033C14.4884 11.2407 14.3735 10.8825 14.3787 10.6948C14.3788 10.6902 14.3789 10.6856 14.3789 10.681L14.3757 6.4668C14.3757 6.44538 14.3742 6.42396 14.3713 6.40272C14.2895 5.8015 14.13 5.19878 13.1785 5.011C13.148 5.00495 13.1169 5.00195 13.0859 5.00195H9.29205C8.57828 5.00195 8.20075 5.32881 7.89807 5.68319C7.81046 5.7865 7.57768 6.06082 7.69628 6.39616C7.81628 6.73549 8.17384 6.80323 8.29122 6.82544C8.70466 6.90391 8.91845 7.13759 8.98464 7.58431C9.11547 8.45229 9.1315 9.38085 9.03517 10.5051C9.00831 10.8069 8.95834 11.0363 8.87772 11.2271C8.85541 11.2799 8.83581 11.3126 8.82212 11.3319C8.80028 11.3231 8.7663 11.3062 8.71923 11.274C8.4287 11.0752 8.20975 10.7661 7.99801 10.4674C7.15229 9.27331 6.44091 7.95453 5.82296 6.43507C5.56847 5.81242 5.09006 5.46466 4.47675 5.45566C3.30824 5.4362 2.22754 5.43667 1.17397 5.45716C0.677046 5.46578 0.328576 5.62221 0.138075 5.92216C-0.0526602 6.22268 -0.0456758 6.60583 0.158887 7.06118C1.62121 10.3129 2.94899 12.6784 4.464 14.7313C5.53074 16.1765 6.60455 17.1797 7.84332 17.8885C9.14486 18.6331 10.6127 18.998 12.3156 18.998C12.5092 18.998 12.7063 18.9933 12.9059 18.9837C13.9565 18.9359 14.384 18.518 14.4306 17.4948C14.4568 16.954 14.5169 16.5159 14.7258 16.1352C14.7842 16.0287 14.8501 15.9572 14.902 15.9442C14.9572 15.9304 15.0552 15.9642 15.1641 16.0349C15.3631 16.1642 15.5346 16.3395 15.6755 16.4934C15.8184 16.6498 15.9628 16.8114 16.1025 16.9676C16.3998 17.3003 16.7073 17.6443 17.0294 17.9725C17.758 18.7151 18.5979 19.0557 19.5268 18.9844L22.8646 18.9859C22.8647 18.9859 22.8647 18.9859 22.8648 18.9859C22.8754 18.9859 22.8859 18.9856 22.8965 18.9849C23.2815 18.9593 23.6144 18.7461 23.8099 18.4C24.0452 17.9832 24.0417 17.4552 23.8002 16.9872C23.5482 16.5006 23.2212 16.0817 22.9337 15.7352ZM22.9773 17.9299C22.9313 18.0114 22.8745 18.0263 22.8452 18.0298L19.5082 18.0283C19.5081 18.0283 19.508 18.0283 19.5078 18.0283C19.4947 18.0283 19.4815 18.0288 19.4684 18.0299C18.811 18.0847 18.2522 17.8536 17.7118 17.3028C17.4053 16.9905 17.1054 16.655 16.8154 16.3306C16.674 16.1724 16.5279 16.0089 16.3811 15.8482C16.1991 15.6494 15.974 15.4209 15.6848 15.2331C15.2519 14.9521 14.8931 14.9605 14.6684 15.0172C14.4461 15.0732 14.1301 15.233 13.8875 15.6757C13.5733 16.2485 13.5039 16.8664 13.4757 17.4501C13.4594 17.8071 13.399 17.9014 13.3738 17.9254C13.3408 17.9568 13.2303 18.012 12.8618 18.0288C11.0911 18.1121 9.60503 17.795 8.31817 17.0587C7.1987 16.4182 6.21844 15.4982 5.23336 14.1636C3.76031 12.1677 2.46421 9.85639 1.031 6.66935C0.979063 6.5539 0.963031 6.48185 0.958391 6.44327C0.994953 6.43127 1.06639 6.41547 1.19164 6.41318C2.23452 6.39297 3.30393 6.39241 4.46189 6.41172C4.62042 6.41407 4.80094 6.46165 4.93762 6.7961C5.58328 8.38372 6.32911 9.76536 7.21787 11.0201C7.45384 11.3532 7.74756 11.7677 8.17923 12.0631C8.57462 12.3338 8.89548 12.3209 9.09508 12.2624C9.29477 12.2039 9.57189 12.0412 9.75855 11.5993C9.87897 11.3144 9.95177 10.9936 9.98782 10.5883C10.0908 9.38586 10.0725 8.38611 9.9304 7.44312C9.83022 6.76751 9.48138 6.27944 8.93186 6.03021C9.02945 5.97939 9.13942 5.95821 9.29214 5.95821H13.0364C13.247 6.00546 13.2888 6.06096 13.3031 6.07994C13.3637 6.16061 13.3984 6.35144 13.4196 6.50055L13.4228 10.6759C13.4143 11.0762 13.6089 11.9639 14.2712 12.2073C14.2767 12.2093 14.2821 12.2112 14.2876 12.213C14.8906 12.4101 15.2895 11.9844 15.5036 11.7557L15.5418 11.7151C16.5494 10.6456 17.2279 9.39603 17.758 8.31626C18.0343 7.75868 18.2683 7.18193 18.4662 6.68477C18.5652 6.43544 18.6553 6.39438 18.8702 6.39893C18.8732 6.39902 18.8761 6.39902 18.8791 6.39902L22.5309 6.40226C22.6159 6.40226 22.7045 6.40324 22.7733 6.41501C22.9473 6.44463 23.0189 6.48072 23.0426 6.49568C23.045 6.52338 23.0444 6.60307 22.9918 6.76938C22.7269 7.60324 22.215 8.31172 21.6731 9.06181L21.6084 9.15148C21.3268 9.54111 21.0295 9.93313 20.742 10.3123C20.4106 10.7492 20.068 11.201 19.7432 11.6569C19.0488 12.6257 19.1098 13.2687 19.9764 14.1139C20.1812 14.3138 20.3911 14.5127 20.5942 14.705C21.1698 15.2503 21.7136 15.7653 22.1989 16.3468C22.453 16.6531 22.741 17.0209 22.9509 17.4263C23.0604 17.6385 23.0336 17.8302 22.9773 17.9299Z"/>
    <path d="M3.48669 7.95164C3.41647 7.8127 3.34686 7.67339 3.2779 7.5338C3.1609 7.29712 2.8744 7.1999 2.63754 7.3169C2.40082 7.43386 2.3037 7.72055 2.42065 7.95727C2.49092 8.09949 2.56184 8.24142 2.63332 8.38294C2.71746 8.54944 2.88579 8.64544 3.06036 8.64544C3.13283 8.64544 3.20647 8.62889 3.27561 8.59397C3.51134 8.47481 3.6058 8.18728 3.48669 7.95164Z"/>
    <path d="M6.48535 12.9114C5.70141 11.8493 4.968 10.6956 4.24331 9.38456C4.11557 9.15346 3.82466 9.06975 3.59362 9.19743C3.36257 9.32517 3.27876 9.61608 3.40649 9.84712C4.15162 11.1951 4.90711 12.3832 5.71608 13.4792C5.80983 13.6063 5.95453 13.6735 6.10111 13.6735C6.19974 13.6735 6.29921 13.6431 6.38461 13.5799C6.597 13.4232 6.6421 13.1239 6.48535 12.9114Z"/>
</g>
</svg>
