<svg width="24" height="24" viewBox="0 0 24 24" xmlns="http://www.w3.org/2000/svg">
<g>
    <path d="M12.0397 0C5.48347 0 0.158923 5.3245 0.158923 11.8411C0.158923 13.9073 0.715222 15.8941 1.74834 17.7219L0 24L6.39733 22.2914C8.26487 23.2848 10.2119 23.841 12.0397 23.841C18.5165 23.841 24 18.3576 24 11.841C24 5.3245 18.6357 0 12.0397 0ZM12.0397 23.0464C10.2914 23.0464 8.42384 22.4901 6.63574 21.4967L6.47682 21.4172L1.1126 22.8874L2.58276 17.6027L2.50328 17.4437C1.50988 15.7351 0.95363 13.7881 0.95363 11.8411C0.95363 5.76159 5.92051 0.794707 12.0397 0.794707C18.1986 0.794707 23.2053 5.76159 23.2053 11.8411C23.2053 17.9206 18.0795 23.0464 12.0397 23.0464Z"/>
    <path d="M12.0397 1.98682C6.59604 1.98682 2.14569 6.3974 2.14569 11.8411C2.14569 13.7881 2.70199 15.6159 3.69534 17.2451L3.85426 17.4438L2.78148 21.2186L6.67553 20.2252L6.87422 20.3444C8.50335 21.3378 10.2915 21.8544 12.0398 21.8544C17.5233 21.8544 22.0133 17.3643 22.0133 11.8411C22.0133 6.3974 17.5232 1.98682 12.0397 1.98682ZM12 21.0994C10.4106 21.0994 8.78148 20.5829 7.27155 19.669L6.79473 19.3511L3.89408 20.0663L4.68878 17.2848L4.37089 16.7683C3.41726 15.2981 2.94045 13.5895 2.94045 11.8411C2.94045 6.87426 7.03314 2.78157 12.0398 2.78157C17.0862 2.78157 21.2186 6.87426 21.2186 11.8411C21.2186 16.9272 17.0861 21.0596 12 21.0994Z"/>
    <path d="M18 14.0264L15.4966 12.8741C15.139 12.7152 14.7814 12.8344 14.543 13.1125L13.5894 14.3443C12.8742 14.0662 10.8874 13.192 9.73511 11.0463L10.6093 10.0131C10.808 9.77474 10.8477 9.45685 10.7285 9.17872L9.65567 6.63567C9.53646 6.35755 9.29806 6.15886 8.98016 6.15886L8.22518 6.11914C7.90728 6.11914 7.54967 6.19863 7.31126 6.43703C6.95365 6.75493 6.27815 7.43043 6.07946 8.34434C5.80134 9.65558 6.23838 11.2053 7.35098 12.7152C8.02649 13.6688 10.0927 16.4901 14.0662 17.6026C14.4635 17.7218 14.8609 17.7615 15.2185 17.7615C15.894 17.7615 16.5298 17.5628 17.0861 17.245C17.7218 16.8477 18.1589 16.1722 18.3179 15.4569L18.4371 14.9006C18.5165 14.5429 18.3179 14.1853 18 14.0264ZM17.4834 15.2582C17.3642 15.7747 17.0463 16.2516 16.6092 16.5297C15.9337 16.9668 15.139 17.0462 14.2648 16.8078C10.5695 15.7747 8.62246 13.1124 7.98672 12.2383C7.03309 10.927 6.63571 9.576 6.87412 8.50317C7.03304 7.78795 7.54963 7.27136 7.86752 6.99324C7.947 6.91375 8.06621 6.87403 8.18541 6.87403L8.98012 6.95352L10.053 9.45685L9.09932 10.5297C8.9404 10.7284 8.90063 11.0462 9.01984 11.2847C10.3311 13.8277 12.7152 14.8211 13.4304 15.0595C13.7085 15.139 13.9867 15.0595 14.1854 14.8211L15.139 13.5496L17.6424 14.7019L17.4834 15.2582Z"/>
</g>
</svg>
