<svg width="12" height="12" viewBox="0 0 12 12" fill="none" xmlns="http://www.w3.org/2000/svg">
<path d="M11.9911 2.58505C11.9911 2.57134 12.0006 2.55799 11.9999 2.54443L8.33795 6.07296L11.9956 9.48876C11.9977 9.46436 11.9911 9.43975 11.9911 9.41483V2.58505Z" fill="#F8991D"/>
<path d="M7.77896 6.61597L6.28403 8.05428C6.20838 8.12706 6.11068 8.16355 6.01292 8.16355C5.9172 8.16355 5.82148 8.12862 5.74636 8.05861L4.25549 6.66935L0.574005 10.2179C0.663522 10.2501 0.759607 10.275 0.860228 10.275H11.1657C11.3151 10.275 11.4552 10.2295 11.5771 10.1616L7.77896 6.61597Z" fill="#F8991D"/>
<path d="M6.00865 7.2341L11.5973 1.85055C11.4708 1.77532 11.3235 1.72485 11.1657 1.72485H0.860224C0.654654 1.72485 0.466289 1.80467 0.31958 1.92641L6.00865 7.2341Z" fill="#F8991D"/>
<path d="M0 2.71631V9.41487C0 9.49177 0.0176739 9.56591 0.0368597 9.63676L3.67268 6.13556L0 2.71631Z" fill="#F8991D"/>
</svg>
