<svg width="100%" height="100%" viewBox="0 0 786 805" version="1.1" xmlns="http://www.w3.org/2000/svg">
    <g transform="matrix(4.16667,0,0,4.16667,-3902.77,-705.547)">
        <g id="logo" transform="matrix(1,0,0,1,-324.926,80.38)">
            <path d="M1378.84,173.07C1376.71,169.15 1374.58,165.236 1372.48,161.302C1372.15,160.695 1371.74,160.404 1371.07,160.305C1369.82,160.122 1368.58,159.875 1367.35,159.623C1366.86,159.523 1366.54,159.607 1366.28,160.065C1365.93,160.678 1365.52,161.252 1365.07,161.937C1363.1,160.73 1361.22,159.574 1359.25,158.368C1360.14,156.899 1361.01,155.462 1361.88,154.024C1362.01,153.814 1362.24,153.608 1362.25,153.395C1362.26,153.018 1362.13,152.637 1362.07,152.258C1361.7,152.378 1361.17,152.387 1361,152.639C1360.08,153.988 1359.28,155.414 1358.39,156.777C1358.14,157.148 1357.7,157.386 1357.37,157.706C1357.23,157.844 1356.99,158.102 1357.04,158.189C1357.39,158.913 1356.83,159.339 1356.54,159.835C1355.81,161.052 1355.06,162.25 1354.32,163.457C1354.01,163.95 1353.7,164.509 1354.37,164.89C1354.96,165.22 1355.31,164.791 1355.61,164.289C1356.53,162.734 1357.49,161.198 1358.47,159.592C1360.42,160.78 1362.3,161.93 1364.28,163.138C1363.72,164.026 1363.19,164.872 1362.6,165.801C1363.89,167.278 1365.19,168.78 1366.49,170.277C1367.65,171.601 1368.79,172.931 1369.98,174.23C1370.34,174.625 1370.43,174.921 1370.15,175.431C1368.8,177.954 1367.51,180.51 1366.16,183.033C1366.02,183.294 1365.63,183.585 1365.36,183.585C1359.85,183.609 1354.33,183.592 1348.81,183.58C1348.73,183.58 1348.64,183.535 1348.43,183.476L1348.43,179.465C1348.43,176.468 1346.95,174.967 1343.96,174.965C1337.37,174.962 1330.77,174.965 1324.18,174.965L1323.14,174.965L1323.14,132.219L1324.12,132.219C1335.02,132.219 1345.93,132.226 1356.84,132.202C1357.53,132.201 1357.85,132.445 1358.16,133.035C1363.66,143.564 1369.18,154.081 1374.69,164.6C1376.4,167.868 1378.12,171.133 1379.84,174.401C1380,174.715 1380.14,175.039 1380.15,175.432C1379.71,174.645 1379.27,173.861 1378.84,173.07ZM1356.09,192.654C1354.7,192.679 1353.32,192.635 1351.94,192.667C1351.26,192.683 1351.02,192.437 1351.01,191.756C1350.95,188.923 1350.93,188.924 1353.78,188.924L1354.89,188.924C1355.87,188.926 1356.86,188.949 1357.84,188.917C1358.5,188.896 1358.8,189.133 1358.78,189.821C1358.71,193.245 1359.25,192.597 1356.09,192.654ZM1344.17,192.848C1344.15,193.783 1343.4,194.392 1342.45,194.462C1341.87,194.505 1341.29,194.47 1340.52,194.47C1341.72,191.315 1342.86,188.308 1344,185.3L1344.19,185.346C1344.19,187.847 1344.23,190.349 1344.17,192.848ZM1338.38,193.791C1338.19,194.297 1337.95,194.534 1337.39,194.491C1336.78,194.445 1336.17,194.481 1335.37,194.481C1336.01,192.79 1336.58,191.273 1337.15,189.757C1338.46,186.311 1339.76,182.863 1341.07,179.418C1341.21,179.035 1341.25,178.483 1341.87,178.632C1342.5,178.785 1343.11,179.01 1343.71,179.259C1343.77,179.284 1343.72,179.71 1343.64,179.92C1341.89,184.545 1340.12,189.163 1338.38,193.791ZM1331.93,194.492C1331.42,194.443 1330.9,194.482 1330.24,194.482C1330.48,193.828 1330.67,193.318 1330.86,192.811C1332.54,188.349 1334.24,183.894 1335.89,179.42C1336.12,178.788 1336.42,178.546 1337.08,178.608C1337.65,178.662 1338.23,178.619 1338.95,178.619C1338.22,180.569 1337.53,182.403 1336.84,184.236C1335.66,187.344 1334.46,190.439 1333.34,193.566C1333.06,194.327 1332.67,194.564 1331.93,194.492ZM1326.92,194.492C1326.38,194.425 1325.82,194.479 1325.07,194.479C1325.81,192.539 1326.48,190.763 1327.15,188.987C1328.34,185.851 1329.55,182.725 1330.68,179.57C1330.96,178.79 1331.34,178.498 1332.15,178.607C1332.63,178.673 1333.13,178.619 1333.75,178.619C1333.64,178.981 1333.57,179.263 1333.47,179.533C1331.7,184.222 1329.91,188.906 1328.16,193.604C1327.93,194.239 1327.65,194.581 1326.92,194.492ZM1323.6,192.051C1323.06,191.032 1322.52,190.012 1321.98,188.997C1322.37,187.973 1322.75,186.956 1323.14,185.942C1323.95,183.789 1324.78,181.64 1325.57,179.475C1325.8,178.841 1326.09,178.513 1326.82,178.606C1327.36,178.675 1327.92,178.62 1328.6,178.62C1328.48,179.011 1328.4,179.324 1328.29,179.623C1326.72,183.765 1325.14,187.9 1323.6,192.051ZM1321.33,184.37C1321.08,185.036 1320.83,185.702 1320.58,186.367C1320.04,185.359 1319.5,184.35 1318.97,183.337C1319.48,181.983 1320,180.63 1320.51,179.274C1320.68,178.814 1320.88,178.562 1321.42,178.607C1322.06,178.66 1322.7,178.619 1323.51,178.619C1322.74,180.644 1322.04,182.506 1321.33,184.37ZM1317.59,180.66C1317.24,179.987 1316.9,179.311 1316.56,178.635L1316.64,178.622C1317.16,178.608 1317.68,178.62 1318.36,178.62C1318.1,179.309 1317.84,179.98 1317.59,180.66ZM1401.34,111.34C1401.24,109.638 1399.82,108.322 1398.17,108.37C1396.53,108.418 1395.25,109.732 1395.2,111.43C1395.19,111.861 1395.19,112.293 1395.19,112.724L1395.19,188.283C1392.47,188.283 1389.88,188.29 1387.3,188.268C1387.12,188.267 1386.95,188.048 1386.78,187.93C1386.94,187.835 1387.1,187.666 1387.27,187.658C1387.93,187.626 1388.6,187.645 1389.44,187.645C1380.73,171.096 1372.1,154.681 1363.41,138.159C1364.15,138.305 1364.73,138.419 1365.34,138.54L1365.34,130.552C1363.2,130.696 1361.8,131.734 1361.18,133.91C1360.61,132.839 1360.08,131.936 1359.65,130.989C1359.36,130.375 1359,130.163 1358.31,130.165C1346.08,130.188 1333.85,130.182 1321.61,130.182L1320.54,130.182L1320.54,174.964C1318.56,174.964 1316.68,174.965 1314.81,174.964C1314.4,174.964 1314.03,174.995 1313.68,175.041C1313.56,175.03 1313.46,175.007 1313.33,175.008C1304.96,175.049 1296.6,175.031 1288.23,175.031L1288.23,175.021C1279.9,175.021 1271.58,175.047 1263.26,174.994C1261.98,174.986 1261.46,175.281 1261.66,176.634C1261.97,178.76 1262.16,180.899 1262.75,182.984C1264.17,188 1266.99,191.734 1272.15,193.267C1273.04,193.53 1273.36,193.954 1273.58,194.737C1274.21,197.034 1275.13,199.213 1276.59,201.112C1279.3,204.658 1282.68,207.36 1287.31,207.433C1297.16,207.587 1307.02,207.478 1316.87,207.497C1317.79,207.498 1318,207.272 1317.53,206.422C1316.76,205.025 1316.03,203.61 1315.29,202.197C1312.48,202.187 1309.68,202.169 1306.87,202.148C1301.42,202.108 1295.97,202.102 1290.51,202.021C1285.12,201.942 1280.98,199.826 1278.75,194.975C1278.31,194.026 1277.82,193.095 1279.69,193.081C1289.44,193.004 1299.19,193.098 1308.94,193C1309.38,192.996 1309.82,192.998 1310.26,192.996L1310.24,192.957C1309.41,191.477 1308.66,189.95 1307.92,188.425C1307.84,188.264 1307.75,188.136 1307.66,188.01C1297.51,188.02 1287.37,187.927 1277.23,188.093C1273.6,188.153 1268.93,184.958 1267.83,181.641C1267.18,179.67 1267.2,179.527 1269.23,179.527C1282.02,179.524 1294.81,179.522 1307.6,179.521L1309.42,179.521L1315.12,190.572L1315.17,190.816C1317.41,195.335 1319.66,199.848 1321.89,204.372C1322.03,204.653 1322.16,204.935 1322.3,205.215C1323.73,200.829 1328.14,197.598 1332.86,197.887C1338.68,198.244 1342.72,202.794 1342.97,207.973L1359.86,207.973C1359.21,200.681 1361.43,194.643 1367.75,190.72C1374.12,186.767 1380.53,187.6 1386.7,191.511C1386.76,191.121 1386.8,190.829 1386.84,190.553L1395.22,190.553L1395.22,214.114L1401.34,214.114L1401.34,213.119C1401.35,179.747 1401.35,146.375 1401.35,113.003C1401.35,112.449 1401.37,111.893 1401.34,111.34Z" />
            <path d="M1288.23,89.128L1288.23,145.751L1298.53,145.751L1298.53,99.431L1439.74,99.431L1439.74,185.669C1439.74,212.346 1426.23,236.711 1403.81,250.719L1369.13,270.144L1334.67,250.845C1322.52,243.257 1313.03,232.705 1306.82,220.445L1295.45,220.445C1302.36,236.355 1314,250.08 1329.42,259.709L1369.13,281.951L1409.06,259.583C1434.72,243.555 1450.04,215.922 1450.04,185.669L1450.04,89.128L1288.23,89.128Z" style="fill:rgb(247,147,29);"/>
            <path d="M1386.11,204.635C1386.01,199.594 1381.82,195.522 1376.87,195.645C1371.69,195.773 1367.78,199.919 1367.9,205.154C1368.01,210.008 1372.21,213.98 1377.16,213.908C1382.14,213.836 1386.21,209.614 1386.11,204.635ZM1392.22,205.238C1391.92,213.888 1384.67,220.465 1376.09,219.987C1367.6,219.513 1361.31,212.269 1361.81,203.619C1362.26,195.598 1369.68,189.054 1377.67,189.543C1386.49,190.084 1392.47,197.312 1392.22,205.238Z" />
            <path d="M1402.85,116.65L1404.53,116.65L1404.53,212.413L1405.62,212.413C1411.17,212.413 1416.71,212.34 1422.26,212.449C1424.43,212.491 1426.59,212.923 1428.75,213.23C1428.97,213.262 1429.14,213.661 1429.33,213.889L1429.17,214.102L1402.85,214.102L1402.85,116.65Z" />
            <path d="M1347.22,173.512C1347.18,173.75 1347.14,174.01 1347.09,174.298L1331.16,174.298C1330.42,167.626 1329.68,160.968 1328.93,154.199L1331.1,154.199C1331.17,153.465 1331.19,152.825 1331.29,152.199C1331.42,151.424 1331.77,150.801 1332.66,150.675C1333.55,150.548 1334.16,151.044 1334.36,151.783C1334.78,153.38 1335.26,155.014 1335.31,156.643C1335.4,160.61 1335.26,164.583 1335.22,168.553C1335.21,169.104 1335.22,169.654 1335.22,170.307C1336.64,170.091 1338.04,169.785 1339.46,169.683C1342,169.5 1344.55,169.431 1347.1,169.338C1347.46,169.325 1347.83,169.42 1348.19,169.516C1348.93,169.718 1349.77,169.897 1349.94,170.8C1350.13,171.817 1349.52,172.608 1348.82,173.199C1348.48,173.483 1347.84,173.406 1347.22,173.512Z" />
            <path d="M1380.12,204.831C1380.1,206.555 1378.7,207.931 1376.98,207.914C1375.22,207.897 1373.81,206.46 1373.83,204.71C1373.85,203.028 1375.32,201.605 1377,201.624C1378.78,201.644 1380.14,203.039 1380.12,204.831Z" />
            <path d="M1338.36,208.187C1338.29,205.155 1335.78,202.707 1332.8,202.78C1329.68,202.857 1327.33,205.351 1327.4,208.499C1327.47,211.418 1330,213.806 1332.97,213.763C1335.97,213.72 1338.42,211.181 1338.36,208.187ZM1342.03,208.55C1341.85,213.751 1337.49,217.707 1332.33,217.419C1327.22,217.134 1323.44,212.778 1323.74,207.576C1324.01,202.752 1328.47,198.816 1333.28,199.111C1338.58,199.436 1342.18,203.783 1342.03,208.55Z" />
            <path d="M1334.75,208.305C1334.74,209.341 1333.9,210.169 1332.86,210.159C1331.81,210.148 1330.96,209.285 1330.97,208.231C1330.98,207.22 1331.86,206.364 1332.88,206.376C1333.95,206.388 1334.76,207.227 1334.75,208.305Z" />
        </g>
    </g>
</svg>
