<svg width="711" height="406" viewBox="0 0 711 406" xmlns="http://www.w3.org/2000/svg">
<path d="M706.236 365.838C705.376 363.985 704.575 362.448 703.83 361.217C691.512 339.031 667.972 311.799 633.224 279.514L632.49 278.775L632.122 278.412L631.75 278.041H631.377C615.607 263.007 605.62 252.899 601.438 247.724C593.786 237.865 592.072 227.886 596.254 217.775C599.209 210.136 610.308 194.003 629.525 169.355C639.633 156.292 647.639 145.822 653.55 137.934C696.189 81.2492 714.674 45.0266 709.003 29.2524L706.801 25.5661C705.321 23.3469 701.501 21.3167 695.347 19.4652C689.179 17.6175 681.295 17.312 671.681 18.5433L565.22 19.2787C563.495 18.6676 561.032 18.7245 557.824 19.4652C554.619 20.2058 553.016 20.5774 553.016 20.5774L551.164 21.5031L549.693 22.6153C548.46 23.3508 547.104 24.6443 545.625 26.4932C544.152 28.3357 542.921 30.4979 541.937 32.9619C530.346 62.7818 517.168 90.5069 502.378 116.136C493.259 131.418 484.884 144.662 477.236 155.876C469.598 167.086 463.19 175.346 458.019 180.64C452.84 185.939 448.166 190.185 443.968 193.392C439.777 196.601 436.577 197.956 434.362 197.46C432.141 196.965 430.05 196.472 428.071 195.98C424.623 193.761 421.849 190.743 419.758 186.924C417.658 183.104 416.244 178.296 415.505 172.505C414.769 166.71 414.334 161.725 414.21 157.533C414.095 153.347 414.148 147.426 414.398 139.787C414.654 132.144 414.769 126.973 414.769 124.262C414.769 114.895 414.952 104.73 415.318 93.7632C415.691 82.7965 415.993 74.1072 416.245 67.7059C416.497 61.298 416.613 54.5186 416.613 47.3714C416.613 40.2243 416.178 34.6192 415.318 30.551C414.469 26.488 413.165 22.5441 411.447 18.7207C409.718 14.9011 407.189 11.9464 403.869 9.84887C400.542 7.75392 396.407 6.09143 391.485 4.85621C378.422 1.90024 361.789 0.301195 341.576 0.0525987C295.739 -0.439416 266.287 2.52043 253.226 8.92827C248.05 11.6356 243.367 15.3348 239.18 20.0141C234.743 25.4379 234.124 28.3978 237.327 28.8846C252.116 31.1 262.585 36.3995 268.747 44.778L270.968 49.2178C272.695 52.4211 274.42 58.0922 276.146 66.2234C277.869 74.3545 278.981 83.3493 279.471 93.2026C280.701 111.196 280.701 126.599 279.471 139.412C278.237 152.23 277.071 162.209 275.959 169.356C274.847 176.503 273.185 182.295 270.968 186.729C268.747 191.165 267.27 193.876 266.529 194.861C265.79 195.845 265.174 196.465 264.684 196.708C261.481 197.936 258.15 198.561 254.702 198.561C251.248 198.561 247.061 196.834 242.133 193.382C237.207 189.93 232.094 185.189 226.794 179.15C221.495 173.11 215.518 164.669 208.861 153.827C202.21 142.984 195.309 130.17 188.162 115.383L182.249 104.66C178.552 97.7615 173.502 87.7166 167.095 74.5345C160.683 61.3472 155.016 48.5911 150.089 36.2687C148.12 31.0935 145.161 27.1535 141.218 24.4423L139.368 23.3301C138.138 22.346 136.164 21.3011 133.455 20.1876C130.742 19.0754 127.912 18.2778 124.952 17.7871L23.6633 18.5226C13.3129 18.5226 6.29002 20.8674 2.59214 25.5506L1.11221 27.7659C0.372895 28.9999 0 30.9705 0 33.6831C0 36.3943 0.739316 39.7219 2.21924 43.6619C17.0056 78.4137 33.0854 111.929 50.4587 144.213C67.8319 176.497 82.929 202.502 95.7408 222.206C108.555 241.924 121.617 260.534 134.926 278.026C148.235 295.525 157.045 306.739 161.355 311.666C165.67 316.602 169.06 320.292 171.524 322.756L180.767 331.626C186.682 337.542 195.367 344.627 206.827 352.881C218.29 361.141 230.98 369.272 244.904 377.288C258.831 385.291 275.032 391.822 293.518 396.873C312.001 401.929 329.99 403.958 347.489 402.979H390.002C398.624 402.234 405.156 399.523 409.595 394.844L411.066 392.991C412.056 391.52 412.981 389.235 413.836 386.16C414.701 383.079 415.131 379.686 415.131 375.994C414.878 365.399 415.685 355.85 417.529 347.349C419.371 338.85 421.471 332.442 423.82 328.126C426.167 323.815 428.816 320.177 431.765 317.227C434.719 314.271 436.825 312.48 438.06 311.864C439.287 311.244 440.267 310.823 441.007 310.571C446.921 308.6 453.882 310.508 461.899 316.305C469.91 322.097 477.424 329.248 484.452 337.747C491.476 346.253 499.915 355.797 509.771 366.392C519.633 376.991 528.256 384.87 535.647 390.053L543.038 394.489C547.973 397.449 554.381 400.16 562.269 402.624C570.142 405.087 577.041 405.703 582.964 404.472L677.596 402.996C686.956 402.996 694.239 401.446 699.405 398.371C704.581 395.29 707.657 391.897 708.648 388.205C709.638 384.51 709.691 380.318 708.836 375.63C707.959 370.955 707.096 367.686 706.236 365.838Z"/>
</svg>
