<?xml version="1.0" encoding="UTF-8" standalone="no"?>
<!DOCTYPE svg PUBLIC "-//W3C//DTD SVG 1.1//EN" "http://www.w3.org/Graphics/SVG/1.1/DTD/svg11.dtd">
<svg width="100%" height="100%" viewBox="0 0 2747 804" version="1.1" xmlns="http://www.w3.org/2000/svg" xmlns:xlink="http://www.w3.org/1999/xlink" xml:space="preserve" xmlns:serif="http://www.serif.com/" style="fill-rule:evenodd;clip-rule:evenodd;stroke-linejoin:round;stroke-miterlimit:2;">
    <g transform="matrix(1,0,0,1,-6789,-1518)">
        <g id="Белый" transform="matrix(4.16667,0,0,4.16667,-725.771,777.453)">
            <g id="Лого" transform="matrix(1,0,0,1,-215.127,86.6858)">
                <path d="M2135.93,175.096C2133.8,171.176 2131.66,167.261 2129.56,163.328C2129.24,162.721 2128.83,162.43 2128.16,162.331C2126.91,162.147 2125.67,161.901 2124.44,161.648C2123.95,161.549 2123.63,161.633 2123.37,162.091C2123.02,162.704 2122.61,163.278 2122.16,163.963C2120.19,162.756 2118.3,161.6 2116.33,160.394C2117.22,158.925 2118.1,157.487 2118.97,156.05C2119.1,155.84 2119.33,155.634 2119.33,155.42C2119.35,155.043 2119.22,154.663 2119.16,154.284C2118.79,154.404 2118.26,154.412 2118.09,154.665C2117.17,156.014 2116.37,157.439 2115.47,158.802C2115.23,159.174 2114.79,159.412 2114.46,159.731C2114.32,159.87 2114.08,160.128 2114.12,160.214C2114.48,160.939 2113.92,161.365 2113.62,161.861C2112.9,163.078 2112.15,164.276 2111.4,165.482C2111.1,165.976 2110.79,166.535 2111.46,166.915C2112.04,167.245 2112.4,166.817 2112.7,166.315C2113.62,164.76 2114.57,163.224 2115.56,161.618C2117.5,162.806 2119.39,163.956 2121.36,165.164C2120.8,166.052 2120.27,166.897 2119.69,167.827C2120.97,169.304 2122.27,170.806 2123.58,172.303C2124.74,173.626 2125.88,174.957 2127.06,176.255C2127.42,176.651 2127.51,176.947 2127.24,177.457C2125.89,179.98 2124.6,182.535 2123.25,185.059C2123.11,185.32 2122.72,185.61 2122.45,185.611C2116.93,185.635 2111.42,185.618 2105.9,185.605C2105.82,185.605 2105.73,185.561 2105.52,185.502L2105.52,181.491C2105.52,178.494 2104.03,176.993 2101.05,176.991C2094.45,176.988 2087.86,176.991 2081.27,176.991L2080.23,176.991L2080.23,134.245L2081.2,134.245C2092.11,134.245 2103.02,134.252 2113.93,134.228C2114.62,134.227 2114.94,134.471 2115.25,135.061C2120.74,145.589 2126.26,156.106 2131.78,166.626C2133.49,169.894 2135.21,173.159 2136.92,176.427C2137.09,176.741 2137.23,177.065 2137.24,177.458C2136.8,176.67 2136.36,175.887 2135.93,175.096ZM2113.17,194.68C2111.79,194.705 2110.41,194.661 2109.02,194.693C2108.35,194.708 2108.11,194.462 2108.1,193.781C2108.03,190.949 2108.02,190.949 2110.87,190.949L2111.98,190.949C2112.96,190.951 2113.95,190.975 2114.93,190.943C2115.59,190.921 2115.88,191.159 2115.87,191.847C2115.8,195.271 2116.34,194.623 2113.17,194.68ZM2101.26,194.874C2101.24,195.809 2100.49,196.418 2099.54,196.488C2098.96,196.53 2098.38,196.496 2097.6,196.496C2098.8,193.341 2099.95,190.334 2101.09,187.326L2101.28,187.372C2101.28,189.873 2101.32,192.375 2101.26,194.874ZM2095.47,195.816C2095.28,196.323 2095.04,196.56 2094.48,196.517C2093.87,196.471 2093.25,196.506 2092.45,196.506C2093.09,194.815 2093.67,193.299 2094.24,191.783C2095.54,188.336 2096.85,184.889 2098.15,181.443C2098.3,181.061 2098.34,180.509 2098.95,180.658C2099.58,180.811 2100.2,181.036 2100.8,181.285C2100.86,181.31 2100.81,181.736 2100.73,181.946C2098.98,186.571 2097.21,191.189 2095.47,195.816ZM2089.02,196.518C2088.51,196.469 2087.99,196.508 2087.33,196.508C2087.57,195.854 2087.75,195.343 2087.94,194.837C2089.63,190.375 2091.32,185.919 2092.98,181.446C2093.21,180.814 2093.51,180.572 2094.16,180.634C2094.74,180.688 2095.32,180.645 2096.04,180.645C2095.3,182.595 2094.61,184.429 2093.92,186.262C2092.75,189.37 2091.54,192.465 2090.42,195.591C2090.15,196.353 2089.76,196.589 2089.02,196.518ZM2084.01,196.518C2083.46,196.451 2082.91,196.504 2082.16,196.504C2082.89,194.564 2083.57,192.789 2084.24,191.013C2085.42,187.876 2086.64,184.751 2087.77,181.596C2088.05,180.815 2088.43,180.523 2089.23,180.633C2089.71,180.699 2090.21,180.645 2090.84,180.645C2090.73,181.006 2090.66,181.289 2090.56,181.559C2088.79,186.248 2087,190.932 2085.25,195.63C2085.01,196.265 2084.74,196.607 2084.01,196.518ZM2080.69,194.077C2080.15,193.058 2079.61,192.038 2079.07,191.022C2079.45,189.999 2079.84,188.981 2080.22,187.968C2081.04,185.814 2081.87,183.666 2082.65,181.501C2082.88,180.867 2083.18,180.539 2083.9,180.631C2084.44,180.701 2085,180.646 2085.68,180.646C2085.56,181.037 2085.49,181.35 2085.37,181.648C2083.81,185.79 2082.23,189.926 2080.69,194.077ZM2078.42,186.396C2078.17,187.061 2077.92,187.728 2077.67,188.393C2077.13,187.385 2076.59,186.376 2076.06,185.363C2076.57,184.009 2077.08,182.656 2077.59,181.3C2077.77,180.839 2077.96,180.588 2078.51,180.633C2079.15,180.686 2079.79,180.645 2080.6,180.645C2079.83,182.669 2079.12,184.532 2078.42,186.396ZM2074.67,182.686C2074.33,182.013 2073.99,181.336 2073.65,180.66L2073.73,180.647C2074.25,180.634 2074.77,180.645 2075.45,180.645C2075.19,181.335 2074.93,182.005 2074.67,182.686ZM2158.42,113.365C2158.32,111.664 2156.91,110.348 2155.25,110.396C2153.61,110.443 2152.33,111.758 2152.29,113.456C2152.27,113.887 2152.28,114.318 2152.28,114.75L2152.28,190.309C2149.55,190.309 2146.97,190.315 2144.38,190.294C2144.21,190.293 2144.04,190.074 2143.87,189.956C2144.03,189.861 2144.19,189.692 2144.35,189.684C2145.02,189.652 2145.69,189.671 2146.53,189.671C2137.82,173.122 2129.18,156.707 2120.49,140.185C2121.24,140.331 2121.82,140.445 2122.43,140.566L2122.43,132.578C2120.28,132.722 2118.88,133.759 2118.26,135.936C2117.7,134.865 2117.17,133.961 2116.73,133.014C2116.45,132.4 2116.08,132.189 2115.4,132.19C2103.17,132.213 2090.93,132.208 2078.7,132.208L2077.63,132.208L2077.63,176.99C2075.65,176.99 2073.77,176.991 2071.89,176.99C2071.48,176.99 2071.11,177.021 2070.76,177.066C2070.65,177.055 2070.55,177.033 2070.42,177.034C2062.05,177.074 2053.68,177.057 2045.31,177.057L2045.31,177.047C2036.99,177.047 2028.67,177.072 2020.34,177.02C2019.06,177.012 2018.55,177.307 2018.74,178.66C2019.06,180.786 2019.25,182.924 2019.84,185.009C2021.26,190.026 2024.08,193.76 2029.24,195.293C2030.13,195.556 2030.45,195.979 2030.66,196.763C2031.29,199.06 2032.22,201.238 2033.67,203.138C2036.39,206.684 2039.76,209.386 2044.4,209.459C2054.25,209.613 2064.1,209.503 2073.96,209.522C2074.88,209.524 2075.08,209.298 2074.62,208.447C2073.85,207.051 2073.12,205.635 2072.38,204.223C2069.57,204.212 2066.76,204.195 2063.96,204.174C2058.51,204.134 2053.05,204.127 2047.6,204.047C2042.2,203.967 2038.07,201.852 2035.84,197.001C2035.4,196.051 2034.91,195.121 2036.78,195.106C2046.53,195.029 2056.28,195.124 2066.03,195.026C2066.47,195.022 2066.91,195.024 2067.35,195.022L2067.33,194.982C2066.5,193.503 2065.75,191.976 2065,190.451C2064.92,190.29 2064.83,190.162 2064.74,190.036C2054.6,190.046 2044.46,189.953 2034.32,190.119C2030.68,190.179 2026.01,186.984 2024.92,183.667C2024.27,181.696 2024.29,181.553 2026.32,181.553C2039.11,181.55 2051.9,181.548 2064.69,181.546L2066.51,181.546L2072.21,192.597L2072.26,192.842C2074.5,197.361 2076.75,201.874 2078.98,206.398C2079.11,206.679 2079.25,206.96 2079.39,207.241C2080.82,202.855 2085.23,199.624 2089.94,199.913C2095.77,200.27 2099.8,204.82 2100.05,209.998L2116.94,209.998C2116.29,202.707 2118.52,196.668 2124.84,192.746C2131.21,188.793 2137.61,189.626 2143.79,193.537C2143.85,193.147 2143.89,192.855 2143.93,192.579L2152.3,192.579L2152.3,216.14L2158.43,216.14L2158.43,215.145C2158.43,181.773 2158.43,148.401 2158.44,115.029C2158.44,114.475 2158.46,113.918 2158.42,113.365Z" style="fill:white;fill-rule:nonzero;"/>
                <path d="M2045.31,91.154L2045.31,147.777L2055.62,147.777L2055.62,101.456L2196.82,101.456L2196.82,187.694C2196.82,214.372 2183.32,238.737 2160.9,252.745L2126.22,272.17L2091.75,252.87C2079.61,245.283 2070.12,234.73 2063.91,222.471L2052.54,222.471C2059.45,238.381 2071.08,252.105 2086.51,261.734L2126.22,283.977L2166.15,261.608C2191.81,245.581 2207.13,217.948 2207.13,187.694L2207.13,91.154L2045.31,91.154Z" style="fill:rgb(247,147,29);fill-rule:nonzero;"/>
                <path d="M2143.2,206.661C2143.09,201.62 2138.91,197.548 2133.96,197.671C2128.78,197.799 2124.87,201.945 2124.98,207.18C2125.09,212.034 2129.3,216.005 2134.25,215.934C2139.22,215.862 2143.3,211.64 2143.2,206.661ZM2149.31,207.264C2149.01,215.914 2141.76,222.491 2133.18,222.013C2124.69,221.539 2118.4,214.295 2118.89,205.645C2119.35,197.624 2126.76,191.08 2134.76,191.569C2143.57,192.11 2149.55,199.338 2149.31,207.264Z" style="fill:white;fill-rule:nonzero;"/>
                <path d="M2159.93,118.676L2161.62,118.676L2161.62,214.439L2162.71,214.439C2168.25,214.439 2173.8,214.366 2179.34,214.475C2181.51,214.517 2183.68,214.949 2185.84,215.256C2186.06,215.288 2186.23,215.687 2186.42,215.915L2186.25,216.127L2159.93,216.127L2159.93,118.676Z" style="fill:white;fill-rule:nonzero;"/>
                <path d="M2104.3,175.538C2104.27,175.775 2104.23,176.036 2104.18,176.324L2088.25,176.324C2087.51,169.651 2086.77,162.994 2086.02,156.225L2088.19,156.225C2088.26,155.491 2088.28,154.851 2088.38,154.225C2088.51,153.45 2088.86,152.827 2089.74,152.701C2090.64,152.574 2091.25,153.07 2091.44,153.809C2091.86,155.406 2092.35,157.04 2092.39,158.669C2092.49,162.636 2092.35,166.609 2092.31,170.579C2092.3,171.129 2092.31,171.68 2092.31,172.333C2093.73,172.117 2095.13,171.811 2096.55,171.709C2099.09,171.525 2101.64,171.457 2104.18,171.364C2104.54,171.351 2104.92,171.446 2105.27,171.542C2106.02,171.744 2106.86,171.923 2107.03,172.826C2107.22,173.843 2106.61,174.634 2105.9,175.225C2105.57,175.509 2104.92,175.432 2104.3,175.538Z" style="fill:white;fill-rule:nonzero;"/>
                <path d="M2137.2,206.857C2137.18,208.581 2135.78,209.957 2134.06,209.94C2132.31,209.923 2130.9,208.486 2130.92,206.735C2130.94,205.054 2132.4,203.631 2134.09,203.649C2135.87,203.669 2137.22,205.065 2137.2,206.857Z" style="fill:white;fill-rule:nonzero;"/>
                <path d="M2095.44,210.212C2095.38,207.181 2092.86,204.732 2089.89,204.806C2086.77,204.883 2084.42,207.376 2084.49,210.524C2084.56,213.444 2087.08,215.832 2090.06,215.789C2093.05,215.746 2095.5,213.207 2095.44,210.212ZM2099.12,210.575C2098.94,215.777 2094.58,219.733 2089.42,219.445C2084.31,219.16 2080.53,214.804 2080.83,209.602C2081.1,204.778 2085.56,200.842 2090.37,201.137C2095.67,201.461 2099.27,205.808 2099.12,210.575Z" style="fill:white;fill-rule:nonzero;"/>
                <path d="M2091.84,210.331C2091.83,211.367 2090.98,212.195 2089.95,212.185C2088.89,212.174 2088.05,211.311 2088.06,210.257C2088.07,209.246 2088.95,208.39 2089.97,208.401C2091.03,208.414 2091.85,209.252 2091.84,210.331Z" style="fill:white;fill-rule:nonzero;"/>
            </g>
            <g id="Текст" transform="matrix(1,0,0,1,110.913,-65.0367)">
                <path d="M1934.57,344.652C1932.32,347.935 1928.35,349.865 1923.74,349.865C1915.25,349.865 1909.54,344.054 1909.54,335.405C1909.54,326.756 1915.25,320.945 1923.74,320.945C1928.29,320.945 1932.26,322.877 1934.56,326.164L1941.75,321.996C1937.8,316.249 1931.14,312.85 1923.74,312.85C1910.89,312.85 1901.19,322.546 1901.19,335.405C1901.19,348.263 1910.89,357.96 1923.74,357.96C1931.2,357.96 1937.86,354.561 1941.75,348.817L1934.57,344.652Z" style="fill:white;fill-rule:nonzero;"/>
                <path d="M1949.02,357.054L1957.37,357.054L1957.37,321.721L1972.96,321.721L1972.96,357.054L1981.31,357.054L1981.31,313.755L1949.02,313.755L1949.02,357.054Z" style="fill:white;fill-rule:nonzero;"/>
                <path d="M1999.44,339.064L2015.62,339.064L2015.62,331.228L1999.44,331.228L1999.44,321.721L2017.23,321.721L2017.23,313.755L1991.08,313.755L1991.08,357.054L2017.56,357.054L2017.56,349.088L1999.44,349.088L1999.44,339.064Z" style="fill:white;fill-rule:nonzero;"/>
                <path d="M2057.68,313.755L2049.33,313.755L2049.33,349.088L2033.74,349.088L2033.74,313.755L2025.39,313.755L2025.39,357.054L2054.18,357.054L2054.18,365.726L2062.54,365.726L2062.54,349.088L2057.68,349.088L2057.68,313.755Z" style="fill:white;fill-rule:nonzero;"/>
                <path d="M2091.69,334.799L2078.83,313.755L2070.04,313.755L2070.04,357.054L2078.4,357.054L2078.4,328.154L2091.71,349.936L2104.99,328.154L2104.99,357.054L2113.34,357.054L2113.34,313.755L2104.55,313.755L2091.69,334.799Z" style="fill:white;fill-rule:nonzero;"/>
                <path d="M2133.56,342.229L2140.23,321.308L2146.91,342.229L2133.56,342.229ZM2146.12,313.755L2134.35,313.755L2119.62,357.054L2128.82,357.054L2131.09,349.936L2149.37,349.936L2151.64,357.054L2160.84,357.054L2146.12,313.755Z" style="fill:white;fill-rule:nonzero;"/>
                <path d="M2209.83,349.088L2196.83,349.088L2196.83,313.755L2188.48,313.755L2188.48,349.088L2175.47,349.088L2175.47,313.755L2167.12,313.755L2167.12,357.054L2218.19,357.054L2218.19,313.755L2209.83,313.755L2209.83,349.088Z" style="fill:white;fill-rule:nonzero;"/>
                <path d="M2236.31,340.48L2236.31,313.755L2227.96,313.755L2227.96,357.054L2234.21,357.054L2253.2,330.33L2253.2,357.054L2261.55,357.054L2261.55,313.755L2255.3,313.755L2236.31,340.48Z" style="fill:white;fill-rule:nonzero;"/>
                <path d="M2295.91,331.098L2279.67,331.098L2279.67,313.755L2271.32,313.755L2271.32,357.054L2279.67,357.054L2279.67,339.064L2295.91,339.064L2295.91,357.054L2304.26,357.054L2304.26,313.755L2295.91,313.755L2295.91,331.098Z" style="fill:white;fill-rule:nonzero;"/>
                <path d="M2324.48,342.229L2331.15,321.308L2337.83,342.229L2324.48,342.229ZM2337.04,313.755L2325.27,313.755L2310.55,357.054L2319.74,357.054L2322.01,349.936L2340.3,349.936L2342.56,357.054L2351.76,357.054L2337.04,313.755Z" style="fill:white;fill-rule:nonzero;"/>
            </g>
        </g>
    </g>
</svg>
