<svg width="36" height="36" viewBox="0 0 36 36" fill="none" xmlns="http://www.w3.org/2000/svg">
<g clip-path="url(#clip0_3_587)">
<path d="M32.625 25.9875C32.4562 25.8187 32.2312 25.7625 32.0625 25.7625C31.8937 25.7625 31.6125 25.8187 31.5 25.9875L31.1062 26.3812L31.3312 28.575L32.625 27.225C32.9625 26.8875 32.9625 26.325 32.625 25.9875ZM30.6562 32.9625L29.3625 22.1062V22.05L28.9687 18.45L28.4625 15.0187C28.4062 14.5125 27.8437 14.3437 27.45 14.6812L21.375 20.25C21.15 20.475 21.0937 20.7562 21.2625 21.0375C23.625 24.6937 26.8875 30.7125 28.9125 35.6062C28.9687 35.6625 28.9687 35.7187 29.025 35.775C29.1937 35.9437 29.475 36 29.7 35.775C30.4312 35.0437 30.7687 34.0312 30.6562 32.9625ZM15.075 33.3562L13.5562 28.125C13.4437 27.7875 13.05 27.6187 12.7125 27.7312C12.15 28.0125 11.475 28.2375 10.8 28.35C10.4062 28.4062 10.1812 28.9125 10.4062 29.25L13.6687 34.1437C13.8937 34.4812 14.3437 34.4812 14.5687 34.2562L14.85 33.975C15.075 33.75 15.1312 33.525 15.075 33.3562ZM10.6875 24.9187C10.6312 24.8625 10.5187 24.8062 10.4062 24.8062C10.2937 24.8062 10.1812 24.8625 10.125 24.9187L6.74998 28.35C6.58123 28.5187 6.58123 28.7437 6.74998 28.8562C6.86248 29.025 7.14373 29.025 7.25623 28.8562L10.6875 25.425C10.8562 25.3125 10.8562 25.0312 10.6875 24.9187ZM7.53748 22.2187L2.64373 21.0375C2.41873 20.9812 2.24998 21.0375 2.08123 21.2062L1.74373 21.5437C1.46248 21.825 1.51873 22.275 1.79998 22.4437L6.29998 25.4812C6.69373 25.7062 7.14373 25.5375 7.25623 25.0875C7.36873 24.4125 7.64998 23.6812 7.93123 23.0625C8.09998 22.725 7.93123 22.3312 7.53748 22.2187ZM20.6437 7.76248L17.3812 7.25623L13.7812 6.86248L2.92498 5.56873C1.91248 5.45623 0.899977 5.79373 0.168727 6.52498C-0.0562732 6.74998 -2.32179e-05 7.03123 0.168727 7.19998C0.224977 7.25623 0.224977 7.25623 0.337477 7.31248C4.89373 9.16873 10.7437 12.4312 14.5687 14.9062C14.7937 15.075 15.1312 15.0187 15.3 14.7937L20.9812 8.77498C21.3187 8.43748 21.0937 7.87498 20.6437 7.76248ZM9.89998 3.54373C9.56248 3.20623 8.99998 3.20623 8.66248 3.54373L7.31248 4.83748L9.44998 5.06248L9.84373 4.66873C10.0125 4.49998 10.0687 4.27498 10.0687 4.10623C10.125 3.93748 10.0687 3.71248 9.89998 3.54373ZM17.4375 4.66873C17.1 4.33123 16.5375 4.33123 16.2 4.66873L15.075 5.73748L17.2125 5.96248L17.3812 5.79373C17.775 5.51248 17.775 5.00623 17.4375 4.66873ZM35.55 0.56248C34.3125 -0.67502 30.2625 0.84373 28.2375 2.81248L9.73123 22.4437C9.33748 22.8375 8.83123 23.7937 8.60623 24.8062L9.33748 24.075C9.95623 23.4562 10.9687 23.4562 11.5875 24.075C12.2062 24.6937 12.2062 25.7062 11.5875 26.325L10.6875 27.1125C11.7562 26.8875 12.825 26.325 13.275 25.9312L33.2437 7.70623C34.7625 6.24373 36 3.65623 36 1.91248C36 1.29373 35.8312 0.84373 35.55 0.56248ZM32.9625 5.39998C32.9062 5.39998 32.9062 5.39998 32.9625 5.39998C32.625 5.39998 32.3437 5.17498 32.2875 4.89373C32.2312 4.66873 32.0625 3.99373 31.2187 3.93748H31.05C30.7125 3.93748 30.4312 3.65623 30.4875 3.31873C30.5437 2.98123 30.7687 2.69998 31.1062 2.69998H31.275C32.4562 2.75623 33.3 3.54373 33.4687 4.72498C33.525 5.06248 33.2437 5.34373 32.9625 5.39998ZM31.5562 18.45C31.3875 18.2812 31.1625 18.225 30.9937 18.225C30.825 18.225 30.5437 18.3375 30.4312 18.45L30.2625 18.6187L30.4875 20.7562L31.5562 19.6312C31.8375 19.35 31.8375 18.7875 31.5562 18.45Z" fill="white"/>
</g>
<defs>
<clipPath id="clip0_3_587">
<rect width="36" height="36" fill="white"/>
</clipPath>
</defs>
</svg>
