<svg width="14" height="14" viewBox="0 0 14 14" fill="none" xmlns="http://www.w3.org/2000/svg">
<g>
<path d="M13.8674 13.2383L10.2528 9.68153C11.1994 8.65314 11.781 7.29308 11.781 5.79648C11.7805 2.59497 9.14351 0 5.89037 0C2.63723 0 0.000244141 2.59497 0.000244141 5.79648C0.000244141 8.99799 2.63723 11.593 5.89037 11.593C7.29595 11.593 8.58512 11.1068 9.59775 10.2985L13.2263 13.8694C13.4031 14.0435 13.6902 14.0435 13.867 13.8694C14.0442 13.6952 14.0442 13.4125 13.8674 13.2383ZM5.89037 10.7011C3.13786 10.7011 0.906523 8.50525 0.906523 5.79648C0.906523 3.0877 3.13786 0.891822 5.89037 0.891822C8.64291 0.891822 10.8742 3.0877 10.8742 5.79648C10.8742 8.50525 8.64291 10.7011 5.89037 10.7011Z" fill="#F8991D"/>
</g>
</svg>
