<svg width="37" height="37" viewBox="0 0 37 37" fill="none" xmlns="http://www.w3.org/2000/svg">
<path d="M31.6416 3.12173C31.028 2.50675 30.2118 2.16797 29.3435 2.16797H27.9021V3.61328C27.9021 5.20717 26.6068 6.50391 25.0147 6.50391H12.0213C10.4292 6.50391 9.13387 5.20717 9.13387 3.61328V2.16797H7.68776C5.89861 2.16797 4.44145 3.62513 4.43942 5.41631L4.40821 33.7444C4.40719 34.6137 4.74467 35.4312 5.35828 36.0462C5.97203 36.6613 6.7882 37 7.65654 37H29.3122C31.1013 37 32.5586 35.5428 32.5605 33.7517L32.5918 5.42354C32.5928 4.55425 32.2553 3.73678 31.6416 3.12173ZM18.8681 13.0078H26.561C27.159 13.0078 27.6438 13.4931 27.6438 14.0918C27.6438 14.6904 27.159 15.1758 26.561 15.1758H18.8681C18.2701 15.1758 17.7854 14.6904 17.7854 14.0918C17.7854 13.4931 18.2701 13.0078 18.8681 13.0078ZM18.8681 20.2344H26.561C27.159 20.2344 27.6438 20.7197 27.6438 21.3184C27.6438 21.917 27.159 22.4023 26.561 22.4023H18.8681C18.2701 22.4023 17.7854 21.917 17.7854 21.3184C17.7854 20.7197 18.2701 20.2344 18.8681 20.2344ZM18.8681 27.4609H26.5919C27.1899 27.4609 27.6747 27.9463 27.6747 28.5449C27.6747 29.1436 27.1899 29.6289 26.5919 29.6289H18.8681C18.2701 29.6289 17.7854 29.1436 17.7854 28.5449C17.7854 27.9463 18.2701 27.4609 18.8681 27.4609ZM9.64248 13.0506C10.0654 12.6273 10.7509 12.6273 11.1738 13.0506L11.7625 13.6401L14.2596 11.1403C14.6825 10.717 15.368 10.7168 15.7908 11.1403C16.2137 11.5635 16.2137 12.2499 15.7908 12.6732L12.5281 15.9395C12.325 16.1428 12.0496 16.257 11.7625 16.257C11.4753 16.257 11.1999 16.1428 10.9968 15.9395L9.6424 14.5835C9.21958 14.1602 9.21958 13.4739 9.64248 13.0506ZM9.64248 20.829C10.0654 20.4057 10.7509 20.4057 11.1738 20.829L11.7625 21.4184L14.2596 18.9186C14.6824 18.4954 15.368 18.4954 15.7908 18.9186C16.2137 19.3419 16.2137 20.0283 15.7908 20.4516L12.5281 23.7179C12.3251 23.9212 12.0496 24.0355 11.7625 24.0355C11.4753 24.0355 11.1999 23.9213 10.9968 23.7179L9.6424 22.3619C9.21958 21.9387 9.21958 21.2524 9.64248 20.829ZM9.64248 28.0556C10.0654 27.6323 10.7509 27.6323 11.1738 28.0556L11.7625 28.645L14.2596 26.1452C14.6824 25.7219 15.368 25.7219 15.7908 26.1452C16.2137 26.5685 16.2137 27.2548 15.7908 27.6782L12.5281 30.9445C12.3251 31.1478 12.0496 31.262 11.7625 31.262C11.4753 31.262 11.1999 31.1479 10.9968 30.9445L9.6424 29.5885C9.21958 29.1653 9.21958 28.4789 9.64248 28.0556Z" fill="white"/>
<path d="M11.2995 3.61328C11.2995 4.0124 11.6227 4.33594 12.0214 4.33594H25.0147C25.4134 4.33594 25.7366 4.0124 25.7366 3.61328V0.722656C25.7366 0.323533 25.4134 0 25.0147 0H12.0214C11.6227 0 11.2995 0.323533 11.2995 0.722656V3.61328Z" fill="white"/>
</svg>
