<svg width="22" height="22" viewBox="0 0 22 22" fill="none" xmlns="http://www.w3.org/2000/svg">
<path d="M11.0015 11.4241C14.1444 11.4241 16.7136 8.8549 16.7136 5.71203C16.7136 2.56915 14.1444 0 11.0015 0C7.85865 0 5.28955 2.56915 5.28955 5.71203C5.28955 8.8549 7.8587 11.4241 11.0015 11.4241Z" fill="#F8991D"/>
<path d="M20.8043 15.9888C20.6546 15.6146 20.4551 15.2654 20.2306 14.9411C19.0832 13.245 17.3122 12.1225 15.3168 11.8482C15.0674 11.8232 14.793 11.8731 14.5934 12.0228C13.5458 12.796 12.2986 13.1951 11.0016 13.1951C9.70448 13.1951 8.45734 12.796 7.40971 12.0228C7.21015 11.8731 6.93577 11.7983 6.68636 11.8482C4.69089 12.1225 2.89498 13.245 1.77255 14.9411C1.54806 15.2654 1.34849 15.6396 1.19886 15.9888C1.12405 16.1384 1.14897 16.313 1.22379 16.4627C1.42335 16.8119 1.67276 17.1611 1.89725 17.4605C2.24644 17.9344 2.62061 18.3584 3.04466 18.7575C3.39385 19.1067 3.79294 19.4309 4.19207 19.7552C6.16257 21.2269 8.5322 22.0001 10.9766 22.0001C13.4211 22.0001 15.7907 21.2269 17.7612 19.7552C18.1603 19.4559 18.5594 19.1067 18.9086 18.7575C19.3077 18.3584 19.7068 17.9343 20.056 17.4605C20.3054 17.1362 20.53 16.8119 20.7295 16.4627C20.8542 16.313 20.8791 16.1384 20.8043 15.9888Z" fill="#F8991D"/>
</svg>
