<?xml version="1.0" encoding="UTF-8"?>
<svg width="700pt" height="700pt" version="1.1" viewBox="0 0 700 700" xmlns="http://www.w3.org/2000/svg" xmlns:xlink="http://www.w3.org/1999/xlink">
 <g>
  <path d="m394.38 200c0 24.508-19.867 44.375-44.375 44.375s-44.375-19.867-44.375-44.375 19.867-44.375 44.375-44.375 44.375 19.867 44.375 44.375"/>
  <path d="m350 16c-101.44 0-184 82.559-184 184 0 98.719 170.32 330.88 177.6 340.72 1.4375 2.082 3.8359 3.2812 6.3984 3.2812s4.9609-1.1992 6.3984-3.2812c7.2812-9.8398 177.6-242 177.6-340.72 0-101.44-82.562-184-184-184zm123.5 200.25c0 4.418-3.5781 8-8 8h-21.781c-2.25 8.7812-5.6953 17.109-10.281 24.883l15.383 15.387c3.125 3.125 3.125 8.1875 0 11.312l-22.984 22.984c-1.5 1.5-3.5312 2.3438-5.6562 2.3438s-4.1562-0.84375-5.6562-2.3438l-15.383-15.387c-7.7734 4.5898-16.109 8.0312-24.891 10.285v21.781c0 4.418-3.5781 8-8 8h-32.5c-4.4219 0-8-3.582-8-8v-21.781c-8.7812-2.2539-17.117-5.6953-24.891-10.285l-15.383 15.387c-3 3-8.3125 3-11.312 0l-22.984-22.984c-3.125-3.125-3.125-8.1875 0-11.312l15.383-15.387c-4.5859-7.7734-8.0312-16.102-10.281-24.883h-21.781c-4.4219 0-8-3.582-8-8v-32.508c0-4.418 3.5781-8 8-8h21.781c2.25-8.7812 5.6953-17.109 10.281-24.883l-15.383-15.387c-3.125-3.125-3.125-8.1875 0-11.312l22.984-22.984c1.5-1.5 3.5312-2.3438 5.6562-2.3438s4.1562 0.84375 5.6562 2.3438l15.383 15.387c7.7734-4.5898 16.109-8.0312 24.891-10.285v-21.781c0-4.418 3.5781-8 8-8h32.5c4.4219 0 8 3.582 8 8v21.781c8.7812 2.2539 17.117 5.6953 24.891 10.285l15.383-15.387c3-3 8.3125-3 11.312 0l22.984 22.984c3.125 3.125 3.125 8.1875 0 11.312l-15.383 15.387c4.5859 7.7734 8.0312 16.102 10.281 24.883h21.781c4.4219 0 8 3.582 8 8z"/>
  <use x="70" y="680" xlink:href="#u"/>
  <use x="99.355469" y="680" xlink:href="#c"/>
  <use x="119.082031" y="680" xlink:href="#b"/>
  <use x="146.210938" y="680" xlink:href="#e"/>
  <use x="173.203125" y="680" xlink:href="#a"/>
  <use x="192.324219" y="680" xlink:href="#b"/>
  <use x="219.453125" y="680" xlink:href="#k"/>
  <use x="262.011719" y="680" xlink:href="#j"/>
  <use x="290.644531" y="680" xlink:href="#i"/>
  <use x="330.644531" y="680" xlink:href="#h"/>
  <use x="361.601562" y="680" xlink:href="#b"/>
  <use x="388.730469" y="680" xlink:href="#g"/>
  <use x="412.441406" y="680" xlink:href="#a"/>
  <use x="431.5625" y="680" xlink:href="#d"/>
  <use x="459.042969" y="680" xlink:href="#c"/>
  <use x="478.769531" y="680" xlink:href="#t"/>
  <use x="502.578125" y="680" xlink:href="#a"/>
  <use x="521.699219" y="680" xlink:href="#e"/>
  <use x="548.691406" y="680" xlink:href="#f"/>
  <use x="562.402344" y="680" xlink:href="#f"/>
  <use x="70" y="720" xlink:href="#s"/>
  <use x="87.402344" y="720" xlink:href="#c"/>
  <use x="107.128906" y="720" xlink:href="#d"/>
  <use x="134.609375" y="720" xlink:href="#r"/>
  <use x="190.214844" y="720" xlink:href="#a"/>
  <use x="209.335938" y="720" xlink:href="#q"/>
  <use x="237.8125" y="720" xlink:href="#b"/>
  <use x="278.867188" y="720" xlink:href="#p"/>
  <use x="312.34375" y="720" xlink:href="#d"/>
  <use x="339.824219" y="720" xlink:href="#o"/>
  <use x="368.300781" y="720" xlink:href="#n"/>
  <use x="410.703125" y="720" xlink:href="#m"/>
  <use x="440.019531" y="720" xlink:href="#c"/>
  <use x="459.746094" y="720" xlink:href="#d"/>
  <use x="487.226562" y="720" xlink:href="#l"/>
  <use x="500.9375" y="720" xlink:href="#b"/>
  <use x="528.066406" y="720" xlink:href="#g"/>
  <use x="551.777344" y="720" xlink:href="#a"/>
 </g>
</svg>
